<?xml version="1.0" encoding="utf-8"?>
<!-- Generator: Adobe Illustrator 17.0.0, SVG Export Plug-In . SVG Version: 6.00 Build 0)  -->
<!DOCTYPE svg PUBLIC "-//W3C//DTD SVG 1.1//EN" "http://www.w3.org/Graphics/SVG/1.1/DTD/svg11.dtd">
<svg version="1.1" id="Layer_1" xmlns="http://www.w3.org/2000/svg" xmlns:xlink="http://www.w3.org/1999/xlink" x="0px" y="0px"
	 width="437.079px" height="83.146px" viewBox="0 0 437.079 83.146" enable-background="new 0 0 437.079 83.146"
	 xml:space="preserve">
<g enable-background="new    ">
	<path fill="#0071CE" d="M13.998,26.923h11.877c4.023,0,11.198,0,15.852,6.689c2.472,3.394,3.296,7.224,3.296,11.15
		c0,9.792-4.848,18.033-18.47,18.033H13.998V26.923z M23.16,54.749h3.927c6.835,0,8.774-4.751,8.774-9.841
		c0-2.036-0.437-4.605-1.745-6.642c-1.066-1.6-2.909-3.297-6.981-3.297H23.16V54.749z"/>
	<path fill="#0071CE" d="M56.96,57.608l-1.891,5.188h-9.841l14.397-35.873h7.223l14.252,35.873h-9.938l-1.745-5.188H56.96z
		 M59.481,50.337h7.514l-3.685-12.265h-0.048h-0.097L59.481,50.337z"/>
	<path fill="#0071CE" d="M119.46,42.386c0.048,0.631,0.048,1.164,0.048,1.891c0,12.022-9.21,19.246-19.148,19.246
		c-10.859,0-19.051-8.483-19.051-18.81c0-10.714,8.629-18.47,19.197-18.47c8.581,0,15.949,5.769,17.937,12.701h-10.277
		c-1.406-2.521-4.024-4.654-7.902-4.654c-4.508,0-9.792,3.346-9.792,10.423c0,7.514,5.333,10.762,9.841,10.762
		c4.557,0,7.611-2.278,8.581-5.769H98.179v-7.32H119.46z"/>
	<path fill="#0071CE" d="M160.862,42.386c0.048,0.631,0.048,1.164,0.048,1.891c0,12.022-9.21,19.246-19.148,19.246
		c-10.859,0-19.051-8.483-19.051-18.81c0-10.714,8.629-18.47,19.197-18.47c8.581,0,15.949,5.769,17.937,12.701h-10.277
		c-1.406-2.521-4.024-4.654-7.902-4.654c-4.508,0-9.792,3.346-9.792,10.423c0,7.514,5.333,10.762,9.841,10.762
		c4.557,0,7.611-2.278,8.581-5.769h-10.713v-7.32H160.862z"/>
	<path fill="#0071CE" d="M165.665,26.923h19.924v8.047h-11.149v5.575h10.81v8.047h-10.81v6.157h11.149v8.047h-19.924V26.923z"/>
	<path fill="#0071CE" d="M191.263,26.923h11.344c6.302,0,8.726,0.775,11.053,2.569c2.957,2.327,4.411,6.108,4.411,9.792
		c0,4.121-2.133,10.181-8.919,11.296l9.744,12.216h-10.471l-8.29-11.586h-0.097v11.586h-8.774V26.923z M200.038,44.956h3.248
		c5.381,0,6.011-3.394,6.011-5.139c0-3.248-2.375-4.848-5.914-4.848h-3.345V44.956z"/>
</g>
<g enable-background="new    ">
	<path fill="#FFFFFF" d="M227.605,26.923h10.471c4.411,0,8.774,1.066,11.683,2.957c6.303,3.927,8.145,10.762,8.145,15.076
		c0,3.345-1.309,10.52-8.145,14.883c-2.908,1.891-7.271,2.957-11.683,2.957h-10.471V26.923z M231.192,59.548h5.188
		c3.248,0,8.192,0,12.312-2.908c2.182-1.843,5.624-5.575,5.624-11.829c0-4.75-2.376-9.162-6.108-11.877
		c-3.199-2.084-6.545-2.763-11.828-2.763h-5.188V59.548z"/>
	<path fill="#FFFFFF" d="M273.573,26.923h4.023l15.416,35.873h-3.927l-5.188-12.071h-16.676l-5.235,12.071h-3.733L273.573,26.923z
		 M268.58,47.477h13.913l-6.884-16.482L268.58,47.477z"/>
	<path fill="#FFFFFF" d="M331.758,46.313c-0.824,10.665-10.132,17.112-18.955,17.112c-10.713,0-19.245-8.677-19.245-18.566
		c0-9.308,7.708-18.566,19.197-18.566c9.501,0,15.561,6.544,16.967,10.18h-4.169c-2.036-3.539-6.787-6.932-12.75-6.932
		c-9.065,0-15.658,7.368-15.658,15.367c0,7.998,6.593,15.27,15.804,15.27c7.611,0,13.234-5.623,14.495-10.616h-20.021v-3.248
		H331.758z"/>
	<path fill="#FFFFFF" d="M374.034,46.313c-0.824,10.665-10.132,17.112-18.955,17.112c-10.713,0-19.245-8.677-19.245-18.566
		c0-9.308,7.708-18.566,19.197-18.566c9.501,0,15.561,6.544,16.967,10.18h-4.169c-2.036-3.539-6.787-6.932-12.75-6.932
		c-9.065,0-15.658,7.368-15.658,15.367c0,7.998,6.593,15.27,15.804,15.27c7.611,0,13.234-5.623,14.495-10.616h-20.021v-3.248
		H374.034z"/>
	<path fill="#FFFFFF" d="M379.563,26.923h19.634v3.248H383.15v12.895h15.513v3.248H383.15v13.234h16.047v3.248h-19.634V26.923z"/>
	<path fill="#FFFFFF" d="M405.549,26.923h9.113c4.799,0,7.175,0.582,8.823,1.357c4.023,1.891,6.398,5.817,6.398,10.229
		c0,5.188-3.732,10.471-10.665,10.907l10.132,13.38h-4.508l-12.168-16.24c4.557,0,6.107-0.048,7.708-0.533
		c3.927-1.114,5.914-4.411,5.914-7.61c0-2.812-1.6-5.721-3.927-6.884c-2.133-1.115-3.976-1.357-6.98-1.357h-6.254v32.625h-3.587
		V26.923z"/>
</g>
</svg>
