<?xml version="1.0" encoding="utf-8"?>
<!-- Generator: Adobe Illustrator 17.0.0, SVG Export Plug-In . SVG Version: 6.00 Build 0)  -->
<!DOCTYPE svg PUBLIC "-//W3C//DTD SVG 1.1//EN" "http://www.w3.org/Graphics/SVG/1.1/DTD/svg11.dtd">
<svg version="1.1" id="Layer_1" xmlns="http://www.w3.org/2000/svg" xmlns:xlink="http://www.w3.org/1999/xlink" x="0px" y="0px"
	 width="27.214px" height="27.462px" viewBox="0 0 27.214 27.462" enable-background="new 0 0 27.214 27.462" xml:space="preserve">
<g>
	<g>
		<path fill="#0071CE" d="M27.034,25.202V1.225C27.034,0.549,26.485,0,25.808,0h-2.185H3.591H1.405C0.731,0,0.184,0.545,0.181,1.219
			v21.798L0.18,25.205c0.001,0.675,0.549,1.223,1.225,1.223h13.552v-10.61h-3.498v-3.655h3.498v-3.97
			c0-2.379,2.157-3.977,3.898-3.977h3.916V7.54h-1.806c-0.89,0-2.077,0.723-2.077,1.611v3.01h3.528v3.655h-3.528v10.61h4.736h2.185
			C26.485,26.427,27.034,25.879,27.034,25.202z"/>
	</g>
</g>
<path fill="#0071CE" d="M-12.156-4.059c-0.231,0.102-0.479,0.172-0.739,0.203c0.266-0.159,0.47-0.412,0.566-0.712
	c-0.249,0.148-0.524,0.255-0.818,0.312c-0.235-0.25-0.569-0.407-0.94-0.407c-0.711,0-1.288,0.576-1.288,1.287
	c0,0.101,0.011,0.199,0.033,0.293c-1.07-0.054-2.019-0.566-2.654-1.345c-0.111,0.19-0.174,0.411-0.174,0.647
	c0,0.447,0.227,0.841,0.573,1.072c-0.211-0.007-0.41-0.065-0.583-0.161c0,0.005,0,0.011,0,0.016c0,0.624,0.444,1.144,1.033,1.262
	c-0.108,0.029-0.222,0.045-0.339,0.045c-0.083,0-0.164-0.008-0.242-0.023c0.164,0.511,0.639,0.884,1.203,0.894
	c-0.441,0.345-0.996,0.551-1.599,0.551c-0.104,0-0.206-0.006-0.307-0.018c0.57,0.365,1.247,0.579,1.974,0.579
	c2.368,0,3.663-1.962,3.663-3.663c0-0.056-0.001-0.111-0.004-0.167C-12.547-3.574-12.329-3.801-12.156-4.059z"/>
<path fill="#0071CE" stroke="#0071CE" stroke-width="0.5" stroke-miterlimit="10" d="M65.385-14.106c0,2.82-2.339,5.106-5.225,5.106
	H43.654c-2.886,0-5.225-2.286-5.225-5.106v-16.132c0-2.82,2.339-5.106,5.225-5.106H60.16c2.886,0,5.225,2.286,5.225,5.106V-14.106z"
	/>
<circle cx="52.759" cy="-21.842" r="6.241"/>
<rect x="57.698" y="-32.377" width="4.882" height="4.882"/>
<rect x="43.282" y="-37.514" width="3.964" height="7.905"/>
</svg>
