<?xml version="1.0" encoding="utf-8"?>
<!-- Generator: Adobe Illustrator 17.0.0, SVG Export Plug-In . SVG Version: 6.00 Build 0)  -->
<!DOCTYPE svg PUBLIC "-//W3C//DTD SVG 1.1//EN" "http://www.w3.org/Graphics/SVG/1.1/DTD/svg11.dtd">
<svg version="1.1" id="Layer_1" xmlns="http://www.w3.org/2000/svg" xmlns:xlink="http://www.w3.org/1999/xlink" x="0px" y="0px"
	 width="174px" height="23.5px" viewBox="0 0 174 23.5" enable-background="new 0 0 174 23.5" xml:space="preserve">
<circle fill="#0071CE" cx="-254" cy="252.848" r="90.909"/>
<g>
	<text transform="matrix(1 0 0 1 522.2342 81.7956)" fill="#0071CE" font-family="'AvantGarde-Bold'" font-size="48.4814">DAGGERDAGGER</text>
</g>
<polygon fill="#FFFFFF" points="-291.664,-47.04 -322.754,-101.114 -354.039,-47.153 -385.324,6.809 -322.949,6.921 -260.575,7.034 
	"/>
<g enable-background="new    ">
	<path fill="#231F20" d="M2.003,1.181h11.62v4.774H7.209v3.624h6.184v4.774H7.209v8.111H2.003V1.181z"/>
	<path fill="#231F20" d="M16.557,1.181h5.436v21.284h-5.436V1.181z"/>
	<path fill="#231F20" d="M29.959,1.181l4.286,14.928h0.058l4.314-14.928h5.609l-7.133,21.284h-5.609L24.38,1.181H29.959z"/>
	<path fill="#231F20" d="M46.612,1.181h11.821v4.774h-6.615v3.308h6.414v4.774h-6.414v3.653h6.615v4.774H46.612V1.181z"/>
</g>
<g enable-background="new    ">
	<path fill="#FFFFFF" d="M70.916,1.181h5.925c2.934,0,4.314,0.46,5.494,1.236c1.582,1.064,2.646,2.876,2.646,5.12
		c0,2.243-1.064,4.056-2.646,5.119c-1.179,0.777-2.56,1.237-5.494,1.237h-3.797v8.571h-2.128V1.181z M73.044,11.967h3.078
		c2.272,0,3.049,0,4.257-0.547c1.668-0.776,2.474-2.272,2.474-3.883c0-1.611-0.805-3.106-2.474-3.883
		c-1.208-0.547-1.984-0.547-4.257-0.547h-3.078V11.967z"/>
	<path fill="#FFFFFF" d="M91.946,1.181h2.388l9.146,21.284h-2.33l-3.077-7.162h-9.895l-3.106,7.162h-2.215L91.946,1.181z
		 M88.984,13.376h8.255l-4.085-9.779L88.984,13.376z"/>
	<path fill="#FFFFFF" d="M105.953,1.181h2.877l11.879,17.66h0.058V1.181h2.128v21.284h-2.128L108.14,3.74h-0.058v18.725h-2.129
		V1.181z"/>
	<path fill="#FFFFFF" d="M127.093,1.181h11.648v1.927h-9.521v7.651h9.204v1.927h-9.204v7.853h9.521v1.927h-11.648V1.181z"/>
	<path fill="#FFFFFF" d="M142.854,1.181h2.129v19.357h8.802v1.927h-10.931V1.181z"/>
	<path fill="#FFFFFF" d="M156.544,16.511c0.115,2.675,1.812,4.401,4.43,4.401c2.243,0,4.286-1.727,4.286-4.229
		c0-3.279-3.309-4.113-4.746-4.545c-1.928-0.575-5.522-1.38-5.522-5.608c0-3.308,2.617-5.724,5.982-5.724
		c3.48,0,5.896,2.675,5.896,5.781h-2.129c0-2.157-1.754-3.854-3.768-3.854c-2.444,0-3.854,1.87-3.854,3.711
		c0,2.588,2.272,3.192,5.062,3.998c5.235,1.409,5.206,5.522,5.206,6.155c0,3.278-2.646,6.241-6.414,6.241
		c-2.761,0-6.472-1.64-6.558-6.328H156.544z"/>
</g>
</svg>
