<?xml version="1.0" encoding="utf-8"?>
<!-- Generator: Adobe Illustrator 17.0.0, SVG Export Plug-In . SVG Version: 6.00 Build 0)  -->
<!DOCTYPE svg PUBLIC "-//W3C//DTD SVG 1.1//EN" "http://www.w3.org/Graphics/SVG/1.1/DTD/svg11.dtd">
<svg version="1.1" id="Layer_1" xmlns="http://www.w3.org/2000/svg" xmlns:xlink="http://www.w3.org/1999/xlink" x="0px" y="0px"
	 width="174px" height="23.5px" viewBox="0 0 174 23.5" enable-background="new 0 0 174 23.5" xml:space="preserve">
<circle fill="#0071CE" cx="-254" cy="252.848" r="90.909"/>
<g>
	<text transform="matrix(1 0 0 1 522.2342 81.7956)" fill="#0071CE" font-family="'AvantGarde-Bold'" font-size="48.4814">DAGGERDAGGER</text>
</g>
<polygon fill="#FFFFFF" points="-291.664,-47.04 -322.754,-101.114 -354.039,-47.153 -385.324,6.809 -322.949,6.921 -260.575,7.034 
	"/>
<g enable-background="new    ">
	<path fill="#FFFFFF" d="M2.003,0h5.024v7.39h6.432V0h5.024v19.67H13.46v-7.868H7.027v7.868H2.003V0z"/>
	<path fill="#FFFFFF" d="M29.115,4.438c5.369,0,7.948,4.226,7.948,7.842s-2.578,7.842-7.948,7.842s-7.948-4.226-7.948-7.842
		S23.746,4.438,29.115,4.438z M29.115,16.001c1.914,0,3.535-1.568,3.535-3.721s-1.621-3.721-3.535-3.721s-3.535,1.568-3.535,3.721
		S27.201,16.001,29.115,16.001z"/>
	<path fill="#FFFFFF" d="M46.817,4.438c5.369,0,7.948,4.226,7.948,7.842s-2.578,7.842-7.948,7.842s-7.948-4.226-7.948-7.842
		S41.448,4.438,46.817,4.438z M46.817,16.001c1.914,0,3.535-1.568,3.535-3.721s-1.621-3.721-3.535-3.721s-3.535,1.568-3.535,3.721
		S44.903,16.001,46.817,16.001z"/>
	<path fill="#FFFFFF" d="M72.626,19.67h-4.2v-1.595h-0.053c-0.372,0.611-1.435,2.073-4.412,2.073c-4.466,0-7.39-3.456-7.39-7.894
		c0-4.998,3.562-7.842,7.31-7.842c2.605,0,3.854,1.276,4.333,1.754V0h4.412V19.67z M64.678,16.028c2.764,0,3.775-2.26,3.775-3.801
		c0-1.781-1.276-3.695-3.721-3.695c-2.552,0-3.748,1.994-3.748,3.695C60.983,14.513,62.605,16.028,64.678,16.028z"/>
	<path fill="#FFFFFF" d="M80.227,3.349h-4.413V0h4.413V3.349z M80.227,19.67h-4.413V4.918h4.413V19.67z"/>
	<path fill="#FFFFFF" d="M97.637,15.044c-0.717,1.648-1.754,2.924-3.003,3.775c-1.223,0.876-2.685,1.328-4.199,1.328
		c-4.226,0-7.815-3.429-7.815-7.815c0-4.12,3.244-7.921,7.735-7.921c4.493,0,7.788,3.562,7.788,8.054
		c0,0.585-0.053,0.824-0.106,1.17H86.979c0.265,1.754,1.727,2.791,3.456,2.791c1.356,0,2.073-0.612,2.684-1.383H97.637z
		 M93.73,10.658c-0.186-0.877-1.063-2.525-3.349-2.525c-2.286,0-3.163,1.648-3.349,2.525H93.73z"/>
	<path fill="#FFFFFF" d="M106.86,9.064c-0.027-0.319-0.079-1.116-1.383-1.116c-0.93,0-1.249,0.585-1.249,0.984
		c0,0.798,1.09,1.249,2.26,1.595c2.498,0.691,5.156,1.436,5.156,4.625c0,3.11-2.737,5.024-6.007,5.024
		c-2.233,0-5.609-1.011-6.007-4.891h4.385c0.187,1.356,1.489,1.356,1.675,1.356c0.745,0,1.541-0.425,1.541-1.143
		c0-1.143-1.089-1.276-3.907-2.365c-1.914-0.612-3.509-1.861-3.509-3.854c0-2.924,2.658-4.864,5.715-4.864
		c1.94,0,5.289,0.771,5.662,4.651H106.86z"/>
</g>
</svg>
