<?xml version="1.0" encoding="utf-8"?>
<!-- Generator: Adobe Illustrator 17.0.0, SVG Export Plug-In . SVG Version: 6.00 Build 0)  -->
<!DOCTYPE svg PUBLIC "-//W3C//DTD SVG 1.1//EN" "http://www.w3.org/Graphics/SVG/1.1/DTD/svg11.dtd">
<svg version="1.1" id="Layer_1" xmlns="http://www.w3.org/2000/svg" xmlns:xlink="http://www.w3.org/1999/xlink" x="0px" y="0px"
	 width="174px" height="23.5px" viewBox="0 0 174 23.5" enable-background="new 0 0 174 23.5" xml:space="preserve">
<circle fill="#0071CE" cx="-254" cy="252.848" r="90.909"/>
<g>
	<text transform="matrix(1 0 0 1 522.2342 81.7956)" fill="#0071CE" font-family="'AvantGarde-Bold'" font-size="48.4814">DAGGERDAGGER</text>
</g>
<polygon fill="#FFFFFF" points="-291.664,-47.04 -322.754,-101.114 -354.039,-47.153 -385.324,6.809 -322.949,6.921 -260.575,7.034 
	"/>
<g enable-background="new    ">
	<path fill="#FFFFFF" d="M10.345,7.394c-0.115-0.72-0.288-2.071-1.956-2.071c-0.949,0-1.87,0.661-1.87,1.668
		c0,1.266,0.575,1.524,4.401,3.25c3.969,1.784,4.976,3.625,4.976,6.098c0,3.106-1.783,6.529-7.42,6.529
		c-6.155,0-7.68-4.026-7.68-6.759v-0.69h5.407c0,2.474,1.524,2.905,2.215,2.905c1.294,0,2.071-1.064,2.071-2.042
		c0-1.41-0.892-1.755-4.17-3.136c-1.496-0.604-5.206-2.1-5.206-6.098s3.883-6.271,7.449-6.271c2.1,0,4.372,0.777,5.753,2.416
		c1.265,1.554,1.352,2.992,1.409,4.2H10.345z"/>
	<path fill="#FFFFFF" d="M21.043,5.955h-4.199V1.181H30.65v4.774h-4.17v16.51h-5.437V5.955z"/>
	<path fill="#FFFFFF" d="M42.704,0.777c6.558,0,11.246,5.12,11.246,11.045c0,5.926-4.659,11.045-11.275,11.045
		c-6.702,0-11.188-5.32-11.188-10.786c0-1.409,0.201-2.991,0.834-4.544C33.442,4.775,36.75,0.777,42.704,0.777z M42.791,18.093
		c3.854,0,5.724-3.509,5.724-6.241c0-2.762-1.87-6.299-5.781-6.299c-3.768,0-5.81,3.221-5.81,6.212
		C36.923,15.044,39.138,18.093,42.791,18.093z"/>
	<path fill="#FFFFFF" d="M56.883,1.181h6.73c3.739,0,5.177,0.46,6.558,1.524c1.755,1.38,2.618,3.624,2.618,5.81
		c0,2.445-1.266,6.04-5.292,6.702l5.781,7.248h-6.212l-4.918-6.874h-0.058v6.874h-5.206V1.181z M62.089,11.88h1.927
		c3.193,0,3.567-2.013,3.567-3.049c0-1.927-1.41-2.876-3.509-2.876h-1.984V11.88z"/>
	<path fill="#FFFFFF" d="M80.353,14.728L73.997,1.181h5.896l3.164,8.542l3.192-8.542h5.839L85.79,14.728v7.737h-5.437V14.728z"/>
</g>
</svg>
