<?xml version="1.0" encoding="utf-8"?>
<!-- Generator: Adobe Illustrator 17.0.0, SVG Export Plug-In . SVG Version: 6.00 Build 0)  -->
<!DOCTYPE svg PUBLIC "-//W3C//DTD SVG 1.1//EN" "http://www.w3.org/Graphics/SVG/1.1/DTD/svg11.dtd">
<svg version="1.1" id="Layer_1" xmlns="http://www.w3.org/2000/svg" xmlns:xlink="http://www.w3.org/1999/xlink" x="0px" y="0px"
	 width="174px" height="23.5px" viewBox="0 0 174 23.5" enable-background="new 0 0 174 23.5" xml:space="preserve">
<circle fill="#0071CE" cx="-254" cy="252.848" r="90.909"/>
<g>
	<text transform="matrix(1 0 0 1 522.2342 81.7956)" fill="#0071CE" font-family="'AvantGarde-Bold'" font-size="48.4814">DAGGERDAGGER</text>
</g>
<polygon fill="#FFFFFF" points="-291.664,-47.04 -322.754,-101.114 -354.039,-47.153 -385.324,6.809 -322.949,6.921 -260.575,7.034 
	"/>
<g enable-background="new    ">
	<path fill="#231F20" d="M4.563,5.955H0.364V1.181H14.17v4.774H10v16.51H4.563V5.955z"/>
	<path fill="#231F20" d="M16.355,1.181h11.821v4.774h-6.615v3.308h6.414v4.774h-6.414v3.653h6.615v4.774H16.355V1.181z"/>
	<path fill="#231F20" d="M31.542,1.181h11.821v4.774h-6.615v3.308h6.414v4.774h-6.414v3.653h6.615v4.774H31.542V1.181z"/>
</g>
<g enable-background="new    ">
	<path fill="#FFFFFF" d="M56.448,16.511c0.115,2.675,1.812,4.401,4.43,4.401c2.243,0,4.286-1.727,4.286-4.229
		c0-3.279-3.308-4.113-4.746-4.545c-1.927-0.575-5.522-1.38-5.522-5.608c0-3.308,2.618-5.724,5.983-5.724
		c3.48,0,5.896,2.675,5.896,5.781h-2.128c0-2.157-1.754-3.854-3.768-3.854c-2.445,0-3.854,1.87-3.854,3.711
		c0,2.588,2.272,3.192,5.062,3.998c5.235,1.409,5.206,5.522,5.206,6.155c0,3.278-2.646,6.241-6.414,6.241
		c-2.761,0-6.472-1.64-6.558-6.328H56.448z"/>
	<path fill="#FFFFFF" d="M70.196,1.181h2.128v9.376H83.34V1.181h2.128v21.284H83.34v-9.98H72.324v9.98h-2.128V1.181z"/>
	<path fill="#FFFFFF" d="M89.841,1.181h2.128v21.284h-2.128V1.181z"/>
	<path fill="#FFFFFF" d="M96.168,1.181h5.407c2.848,0,4.257,0.345,5.235,0.805c2.387,1.122,3.796,3.452,3.796,6.069
		c0,3.077-2.214,6.213-6.327,6.472l6.011,7.938h-2.675l-7.219-9.636c2.703,0,3.624-0.028,4.573-0.316
		c2.329-0.661,3.509-2.617,3.509-4.516c0-1.668-0.949-3.394-2.33-4.084c-1.266-0.662-2.358-0.806-4.142-0.806h-3.71v19.357h-2.129
		V1.181z"/>
	<path fill="#FFFFFF" d="M116.844,3.107h-4.891V1.181h11.88v1.927h-4.861v19.357h-2.128V3.107z"/>
	<path fill="#FFFFFF" d="M126.795,16.511c0.115,2.675,1.812,4.401,4.43,4.401c2.243,0,4.285-1.727,4.285-4.229
		c0-3.279-3.308-4.113-4.746-4.545c-1.927-0.575-5.522-1.38-5.522-5.608c0-3.308,2.618-5.724,5.983-5.724
		c3.479,0,5.896,2.675,5.896,5.781h-2.128c0-2.157-1.755-3.854-3.768-3.854c-2.445,0-3.854,1.87-3.854,3.711
		c0,2.588,2.272,3.192,5.062,3.998c5.234,1.409,5.206,5.522,5.206,6.155c0,3.278-2.646,6.241-6.414,6.241
		c-2.762,0-6.472-1.64-6.559-6.328H126.795z"/>
</g>
</svg>
