<?xml version="1.0" encoding="utf-8"?>
<!-- Generator: Adobe Illustrator 17.0.0, SVG Export Plug-In . SVG Version: 6.00 Build 0)  -->
<!DOCTYPE svg PUBLIC "-//W3C//DTD SVG 1.1//EN" "http://www.w3.org/Graphics/SVG/1.1/DTD/svg11.dtd">
<svg version="1.1" id="Layer_1" xmlns="http://www.w3.org/2000/svg" xmlns:xlink="http://www.w3.org/1999/xlink" x="0px" y="0px"
	 width="27.214px" height="27.462px" viewBox="0 0 27.214 27.462" enable-background="new 0 0 27.214 27.462" xml:space="preserve">
<g>
	<g>
		<path fill="#0071CE" d="M27.034-12.312v-23.977c0-0.676-0.549-1.225-1.225-1.225h-2.185H3.591H1.405
			c-0.675,0-1.221,0.545-1.224,1.219v21.798L0.18-12.31c0.001,0.675,0.549,1.223,1.225,1.223h13.552v-10.61h-3.498v-3.655h3.498
			v-3.97c0-2.379,2.157-3.977,3.898-3.977h3.916v3.326h-1.806c-0.89,0-2.077,0.723-2.077,1.611v3.01h3.528v3.655h-3.528v10.61h4.736
			h2.185C26.485-11.087,27.034-11.636,27.034-12.312z"/>
	</g>
</g>
<path fill="#0071CE" d="M27.231,4.437c-1.003,0.445-2.08,0.745-3.211,0.88c1.154-0.692,2.041-1.787,2.458-3.093
	c-1.08,0.641-2.277,1.106-3.55,1.357c-1.02-1.086-2.473-1.765-4.08-1.765c-3.087,0-5.59,2.503-5.59,5.59
	c0,0.438,0.049,0.865,0.145,1.274C8.756,8.446,4.637,6.221,1.88,2.839c-0.481,0.826-0.757,1.786-0.757,2.81
	c0,1.939,0.987,3.651,2.487,4.653c-0.916-0.029-1.778-0.281-2.532-0.699C1.077,9.626,1.077,9.65,1.077,9.673
	c0,2.709,1.927,4.968,4.484,5.482c-0.469,0.128-0.963,0.196-1.473,0.196c-0.36,0-0.71-0.035-1.052-0.1
	c0.711,2.221,2.776,3.837,5.222,3.882c-1.913,1.499-4.324,2.393-6.943,2.393c-0.451,0-0.896-0.026-1.334-0.078
	c2.474,1.586,5.412,2.512,8.569,2.512c10.283,0,15.906-8.518,15.906-15.906c0-0.242-0.005-0.483-0.016-0.723
	C25.534,6.542,26.482,5.558,27.231,4.437z"/>
<path fill="#0071CE" stroke="#0071CE" stroke-width="0.5" stroke-miterlimit="10" d="M65.385-14.106c0,2.82-2.339,5.106-5.225,5.106
	H43.654c-2.886,0-5.225-2.286-5.225-5.106v-16.132c0-2.82,2.339-5.106,5.225-5.106H60.16c2.886,0,5.225,2.286,5.225,5.106V-14.106z"
	/>
<circle cx="52.759" cy="-21.842" r="6.241"/>
<rect x="57.698" y="-32.377" width="4.882" height="4.882"/>
<rect x="43.282" y="-37.514" width="3.964" height="7.905"/>
</svg>
