<?xml version="1.0" encoding="utf-8"?>
<!-- Generator: Adobe Illustrator 17.0.0, SVG Export Plug-In . SVG Version: 6.00 Build 0)  -->
<!DOCTYPE svg PUBLIC "-//W3C//DTD SVG 1.1//EN" "http://www.w3.org/Graphics/SVG/1.1/DTD/svg11.dtd">
<svg version="1.1" id="Layer_1" xmlns="http://www.w3.org/2000/svg" xmlns:xlink="http://www.w3.org/1999/xlink" x="0px" y="0px"
	 width="416.5px" height="35px" viewBox="0 0 416.5 35" enable-background="new 0 0 416.5 35" xml:space="preserve">
<circle fill="#0071CE" cx="-251.5" cy="255.348" r="90.909"/>
<g>
	<text transform="matrix(1 0 0 1 524.7342 84.2956)" fill="#0071CE" font-family="'AvantGarde-Bold'" font-size="48.4814">DAGGERDAGGER</text>
</g>
<polygon fill="#FFFFFF" points="-289.164,-44.54 -320.254,-98.614 -351.539,-44.653 -382.824,9.309 -320.449,9.421 -258.075,9.534 
	"/>
<g enable-background="new    ">
	<path fill="#231F20" d="M8.559,3.681l2.848,13.835h0.058l3.135-13.835h4.17l3.078,13.893h0.058L24.81,3.681h5.494l-5.638,21.284
		h-4.774l-3.193-13.777h-0.058l-3.192,13.777H8.53L3.036,3.681H8.559z"/>
	<path fill="#231F20" d="M32.517,3.681h4.775v6.788h0.058c0.805-1.438,2.416-2.014,4.113-2.014c1.524,0,3.336,0.547,4.343,1.755
		c1.352,1.581,1.496,2.991,1.496,5.839v8.916h-4.774v-8.687c0-0.776,0-3.336-2.56-3.336c-2.675,0-2.675,2.387-2.675,3.163v8.859
		h-4.775V3.681z"/>
	<path fill="#231F20" d="M58.546,8.483c5.81,0,8.6,4.573,8.6,8.485s-2.79,8.485-8.6,8.485s-8.6-4.573-8.6-8.485
		S52.736,8.483,58.546,8.483z M58.546,20.995c2.071,0,3.825-1.696,3.825-4.026s-1.754-4.026-3.825-4.026s-3.826,1.696-3.826,4.026
		S56.476,20.995,58.546,20.995z"/>
	<path fill="#231F20" d="M83.511,7.305h-4.775V3.681h4.775V7.305z M83.511,24.965h-4.775V9.002h4.775V24.965z"/>
	<path fill="#231F20" d="M93.75,13.488c-0.029-0.345-0.086-1.208-1.496-1.208c-1.007,0-1.352,0.633-1.352,1.064
		c0,0.863,1.179,1.352,2.445,1.726c2.704,0.748,5.58,1.554,5.58,5.005c0,3.365-2.962,5.437-6.5,5.437
		c-2.417,0-6.069-1.094-6.5-5.293h4.746c0.202,1.467,1.611,1.467,1.812,1.467c0.806,0,1.668-0.46,1.668-1.236
		c0-1.237-1.179-1.381-4.228-2.56c-2.071-0.662-3.797-2.014-3.797-4.171c0-3.164,2.876-5.264,6.184-5.264
		c2.1,0,5.724,0.834,6.126,5.033H93.75z"/>
</g>
<g enable-background="new    ">
	<path fill="#FFFFFF" d="M110.114,3.681h7.047c2.387,0,6.644,0,9.405,3.969c1.467,2.014,1.956,4.286,1.956,6.615
		c0,5.811-2.876,10.7-10.959,10.7h-7.449V3.681z M115.55,20.19h2.33c4.056,0,5.206-2.819,5.206-5.839
		c0-1.208-0.259-2.732-1.035-3.94c-0.633-0.949-1.726-1.956-4.142-1.956h-2.358V20.19z"/>
	<path fill="#FFFFFF" d="M149.288,24.965h-4.775v-1.726h-0.058c-0.805,1.553-2.79,2.272-4.659,2.272
		c-5.062,0-8.025-3.97-8.025-8.543c0-5.234,3.768-8.514,8.025-8.514c2.617,0,4.084,1.266,4.659,2.243h0.058V9.002h4.775V24.965z
		 M140.515,21.053c2.992,0,3.998-2.531,3.998-4.084c0-1.927-1.323-4.056-4.027-4.056c-2.732,0-3.94,2.301-3.94,4.113
		C136.545,18.521,137.639,21.053,140.515,21.053z"/>
	<path fill="#FFFFFF" d="M170.283,23.038c0,2.387-0.172,3.911-0.949,5.264c-1.237,2.013-4.142,3.768-8.083,3.768
		c-5.551,0-7.651-3.337-7.967-5.608h5.522c0.69,1.581,2.474,1.581,2.79,1.581c0.604,0,3.883-0.057,3.883-4.343V23.21h-0.058
		c-0.489,0.921-1.87,2.272-4.372,2.272c-4.343,0-8.054-3.279-8.054-8.398c0-5.465,3.912-8.601,8.054-8.601
		c1.783,0,3.538,0.633,4.4,2.014h0.058V9.002h4.774V23.038z M161.597,21.024c2.301,0,3.912-1.668,3.912-3.97
		c0-2.56-1.754-4.112-3.883-4.112c-2.042,0-3.854,1.639-3.854,3.969C157.771,19.471,159.612,21.024,161.597,21.024z"/>
	<path fill="#FFFFFF" d="M191.192,23.038c0,2.387-0.172,3.911-0.949,5.264c-1.237,2.013-4.142,3.768-8.083,3.768
		c-5.551,0-7.651-3.337-7.967-5.608h5.522c0.69,1.581,2.474,1.581,2.79,1.581c0.604,0,3.883-0.057,3.883-4.343V23.21h-0.058
		c-0.489,0.921-1.87,2.272-4.372,2.272c-4.343,0-8.054-3.279-8.054-8.398c0-5.465,3.912-8.601,8.054-8.601
		c1.783,0,3.538,0.633,4.4,2.014h0.058V9.002h4.774V23.038z M182.506,21.024c2.301,0,3.912-1.668,3.912-3.97
		c0-2.56-1.754-4.112-3.883-4.112c-2.042,0-3.854,1.639-3.854,3.969C178.681,19.471,180.521,21.024,182.506,21.024z"/>
	<path fill="#FFFFFF" d="M210.952,19.96c-0.776,1.783-1.898,3.164-3.25,4.085c-1.323,0.948-2.905,1.438-4.544,1.438
		c-4.573,0-8.457-3.71-8.457-8.456c0-4.458,3.509-8.571,8.37-8.571s8.427,3.854,8.427,8.715c0,0.633-0.057,0.892-0.114,1.266
		h-11.966c0.288,1.898,1.87,3.021,3.739,3.021c1.467,0,2.243-0.662,2.905-1.496H210.952z M206.724,15.214
		c-0.201-0.949-1.15-2.732-3.624-2.732s-3.423,1.783-3.624,2.732H206.724z"/>
	<path fill="#FFFFFF" d="M215.093,9.002h4.487v1.696h0.058c0.402-0.776,1.237-2.243,3.998-2.243v4.804
		c-2.215,0.057-3.768,0.518-3.768,2.934v8.772h-4.775V9.002z"/>
	<path fill="#FFFFFF" d="M236.318,3.681h7.047c2.388,0,6.645,0,9.405,3.969c1.467,2.014,1.956,4.286,1.956,6.615
		c0,5.811-2.876,10.7-10.959,10.7h-7.449V3.681z M241.755,20.19h2.329c4.056,0,5.206-2.819,5.206-5.839
		c0-1.208-0.259-2.732-1.035-3.94c-0.633-0.949-1.726-1.956-4.142-1.956h-2.358V20.19z"/>
	<path fill="#FFFFFF" d="M275.492,24.965h-4.774v-1.726h-0.058c-0.806,1.553-2.79,2.272-4.659,2.272
		c-5.062,0-8.025-3.97-8.025-8.543c0-5.234,3.769-8.514,8.025-8.514c2.617,0,4.084,1.266,4.659,2.243h0.058V9.002h4.774V24.965z
		 M266.72,21.053c2.991,0,3.998-2.531,3.998-4.084c0-1.927-1.323-4.056-4.027-4.056c-2.732,0-3.94,2.301-3.94,4.113
		C262.75,18.521,263.844,21.053,266.72,21.053z"/>
	<path fill="#FFFFFF" d="M296.488,23.038c0,2.387-0.173,3.911-0.949,5.264c-1.236,2.013-4.142,3.768-8.082,3.768
		c-5.552,0-7.651-3.337-7.968-5.608h5.522c0.69,1.581,2.474,1.581,2.79,1.581c0.604,0,3.883-0.057,3.883-4.343V23.21h-0.058
		c-0.488,0.921-1.869,2.272-4.371,2.272c-4.344,0-8.054-3.279-8.054-8.398c0-5.465,3.911-8.601,8.054-8.601
		c1.783,0,3.537,0.633,4.4,2.014h0.058V9.002h4.774V23.038z M287.802,21.024c2.301,0,3.912-1.668,3.912-3.97
		c0-2.56-1.755-4.112-3.883-4.112c-2.043,0-3.854,1.639-3.854,3.969C283.977,19.471,285.817,21.024,287.802,21.024z"/>
	<path fill="#FFFFFF" d="M317.397,23.038c0,2.387-0.172,3.911-0.948,5.264c-1.237,2.013-4.143,3.768-8.083,3.768
		c-5.551,0-7.65-3.337-7.967-5.608h5.522c0.69,1.581,2.474,1.581,2.79,1.581c0.604,0,3.883-0.057,3.883-4.343V23.21h-0.058
		c-0.489,0.921-1.87,2.272-4.372,2.272c-4.343,0-8.054-3.279-8.054-8.398c0-5.465,3.912-8.601,8.054-8.601
		c1.783,0,3.538,0.633,4.4,2.014h0.058V9.002h4.774V23.038z M308.712,21.024c2.301,0,3.911-1.668,3.911-3.97
		c0-2.56-1.754-4.112-3.883-4.112c-2.042,0-3.854,1.639-3.854,3.969C304.886,19.471,306.727,21.024,308.712,21.024z"/>
	<path fill="#FFFFFF" d="M337.157,19.96c-0.776,1.783-1.898,3.164-3.25,4.085c-1.323,0.948-2.905,1.438-4.545,1.438
		c-4.573,0-8.456-3.71-8.456-8.456c0-4.458,3.509-8.571,8.37-8.571c4.86,0,8.427,3.854,8.427,8.715c0,0.633-0.057,0.892-0.114,1.266
		h-11.966c0.288,1.898,1.87,3.021,3.739,3.021c1.467,0,2.243-0.662,2.905-1.496H337.157z M332.929,15.214
		c-0.201-0.949-1.15-2.732-3.624-2.732s-3.423,1.783-3.624,2.732H332.929z"/>
	<path fill="#FFFFFF" d="M341.298,9.002h4.487v1.696h0.058c0.402-0.776,1.236-2.243,3.998-2.243v4.804
		c-2.215,0.057-3.769,0.518-3.769,2.934v8.772h-4.774V9.002z"/>
</g>
<g enable-background="new    ">
	<path fill="#231F20" d="M356.916,10.957c-0.028-0.259-0.028-0.374-0.028-0.518c0-4.142,3.164-7.162,7.564-7.162
		c4.487,0,6.903,3.251,6.903,6.098c0,2.646-1.697,4.2-3.25,5.638c-1.87,1.726-2.129,2.301-2.215,3.193h-5.005
		c0.028-2.014,1.093-3.251,2.991-5.062c1.438-1.409,1.956-2.272,1.956-3.164c0-1.035-0.489-1.783-1.668-1.783
		c-1.928,0-1.956,1.668-1.985,2.761H356.916z M365.891,24.965h-5.005v-4.89h5.005V24.965z"/>
</g>
</svg>
